<svg width="38" height="38" fill="none" xmlns="http://www.w3.org/2000/svg"><path d="M11.977 2a2.018 2.018 0 0 1 1.765 1.04l2.468 4.446a2.018 2.018 0 0 1 .04 1.882l-2.377 4.758s.69 3.543 3.574 6.428c2.885 2.885 6.416 3.563 6.416 3.563l4.757-2.379a2.019 2.019 0 0 1 1.883.04l4.46 2.481A2.019 2.019 0 0 1 36 26.023v5.12c0 2.608-2.422 4.49-4.893 3.657-5.074-1.712-12.95-4.972-17.943-9.965C8.172 19.843 4.91 11.967 3.2 6.892 2.366 4.422 4.25 2 6.857 2h5.12Z" stroke="#000" stroke-width="4" stroke-linejoin="round"/></svg>